<?xml version="1.0" encoding="UTF-8" standalone="no"?>
<!DOCTYPE svg PUBLIC "-//W3C//DTD SVG 1.1//EN"
 "http://www.w3.org/Graphics/SVG/1.1/DTD/svg11.dtd">
<!-- Generated by graphviz version 14.0.0 (20250921.2048)
 -->
<!-- Pages: 1 -->
<svg width="215pt" height="126pt"
 viewBox="0.00 0.00 215.00 126.00" xmlns="http://www.w3.org/2000/svg" xmlns:xlink="http://www.w3.org/1999/xlink">
<g id="graph0" class="graph" transform="scale(1 1) rotate(0) translate(4 122)">
<polygon fill="white" stroke="none" points="-4,4 -4,-122 210.75,-122 210.75,4 -4,4"/>
<!-- 4679885264 -->
<g id="node1" class="node">
<title>4679885264</title>
<polygon fill="none" stroke="black" points="2.25,-55.5 2.25,-91.5 82,-91.5 82,-55.5 2.25,-55.5"/>
<text xml:space="preserve" text-anchor="middle" x="42.12" y="-68.7" font-family="Times,serif" font-size="14.00">data 2.0000</text>
</g>
<!-- 4679882480 -->
<g id="node3" class="node">
<title>4679882480</title>
<polygon fill="none" stroke="black" points="120.25,-27.5 120.25,-63.5 206.75,-63.5 206.75,-27.5 120.25,-27.5"/>
<text xml:space="preserve" text-anchor="middle" x="163.5" y="-40.7" font-family="Times,serif" font-size="14.00">data 10.0000</text>
</g>
<!-- 4679885264&#45;&gt;4679882480 -->
<g id="edge1" class="edge">
<title>4679885264&#45;&gt;4679882480</title>
<path fill="none" stroke="black" d="M71.72,-55.07C82.92,-51.03 96.15,-47.36 109,-44.61"/>
<polygon fill="black" stroke="black" points="109.49,-48.08 118.64,-42.75 108.16,-41.21 109.49,-48.08"/>
</g>
<!-- 4679885264&#45;&gt;4679882480 -->
<g id="edge4" class="edge">
<title>4679885264&#45;&gt;4679882480</title>
<path fill="none" stroke="black" d="M82.21,-64.33C90.72,-62.34 99.87,-60.19 108.83,-58.09"/>
<polygon fill="black" stroke="black" points="109.62,-61.5 118.56,-55.81 108.02,-54.68 109.62,-61.5"/>
</g>
<!-- 4679885264&#45;&gt;4679882480 -->
<g id="edge7" class="edge">
<title>4679885264&#45;&gt;4679882480</title>
<path fill="none" stroke="black" d="M82.21,-77.09C95.39,-74.99 110.09,-71.54 123.27,-67.47"/>
<polygon fill="black" stroke="black" points="124.11,-70.88 132.49,-64.4 121.9,-64.24 124.11,-70.88"/>
</g>
<!-- 4685296736 -->
<g id="node2" class="node">
<title>4685296736</title>
<polygon fill="none" stroke="black" points="0,-0.5 0,-36.5 84.25,-36.5 84.25,-0.5 0,-0.5"/>
<text xml:space="preserve" text-anchor="middle" x="42.12" y="-13.7" font-family="Times,serif" font-size="14.00">data &#45;3.0000</text>
</g>
<!-- 4685296736&#45;&gt;4679882480 -->
<g id="edge2" class="edge">
<title>4685296736&#45;&gt;4679882480</title>
<path fill="none" stroke="black" d="M84.54,-14.95C96.81,-16.92 110.22,-19.98 122.41,-23.6"/>
<polygon fill="black" stroke="black" points="121.15,-26.87 131.75,-26.6 123.29,-20.21 121.15,-26.87"/>
</g>
<!-- 4685296736&#45;&gt;4679882480 -->
<g id="edge5" class="edge">
<title>4685296736&#45;&gt;4679882480</title>
<path fill="none" stroke="black" d="M84.54,-27.87C92.41,-29.65 100.75,-31.53 108.94,-33.38"/>
<polygon fill="black" stroke="black" points="107.94,-36.75 118.47,-35.54 109.48,-29.92 107.94,-36.75"/>
</g>
<!-- 4685296736&#45;&gt;4679882480 -->
<g id="edge8" class="edge">
<title>4685296736&#45;&gt;4679882480</title>
<path fill="none" stroke="black" d="M72.33,-36.9C83.43,-40.77 96.46,-44.27 109.11,-46.86"/>
<polygon fill="black" stroke="black" points="108.11,-50.23 118.58,-48.61 109.38,-43.35 108.11,-50.23"/>
</g>
<!-- 4679882480&#45;&gt;4679882480 -->
<g id="edge3" class="edge">
<title>4679882480&#45;&gt;4679882480</title>
<path fill="none" stroke="black" d="M156.18,-63.9C155.05,-73.42 157.49,-82 163.5,-82 166.88,-82 169.13,-79.29 170.25,-75.22"/>
<polygon fill="black" stroke="black" points="173.74,-75.58 170.74,-65.42 166.74,-75.23 173.74,-75.58"/>
</g>
<!-- 4679882480&#45;&gt;4679882480 -->
<g id="edge6" class="edge">
<title>4679882480&#45;&gt;4679882480</title>
<path fill="none" stroke="black" d="M151.23,-63.93C144.87,-81.23 148.96,-100 163.5,-100 174.97,-100 179.94,-88.31 178.4,-74.88"/>
<polygon fill="black" stroke="black" points="181.86,-74.3 176.12,-65.4 175.05,-75.94 181.86,-74.3"/>
</g>
<!-- 4679882480&#45;&gt;4679882480 -->
<g id="edge9" class="edge">
<title>4679882480&#45;&gt;4679882480</title>
<path fill="none" stroke="black" d="M148.14,-63.7C134.56,-88.2 139.68,-118 163.5,-118 184.07,-118 190.69,-95.79 183.38,-73.96"/>
<polygon fill="black" stroke="black" points="186.7,-72.83 179.47,-65.09 180.3,-75.65 186.7,-72.83"/>
</g>
</g>
</svg>
